<svg width="23" height="24" viewBox="0 0 23 24" fill="none" xmlns="http://www.w3.org/2000/svg">
<path d="M11.9186 24C9.42387 24 7.291 23.4977 5.52 22.4931C3.7715 21.5221 2.34617 20.0567 1.4214 18.2792C0.4738 16.4777 0 14.3846 0 12C0 9.61539 0.4738 7.52231 1.4214 5.72077C2.34617 3.94326 3.7715 2.47786 5.52 1.50692C7.28947 0.502307 9.42233 0 11.9186 0C14.1741 0 16.1284 0.411538 17.7813 1.23462C19.3688 2.00073 20.7018 3.21081 21.62 4.71923C22.5277 6.21923 22.9877 7.97923 23 9.99923H15.3341C15.2237 8.77923 14.8764 7.84769 14.2922 7.20462C14.0087 6.88956 13.6602 6.64027 13.271 6.47408C12.8817 6.30789 12.461 6.2288 12.0382 6.24231C11.3566 6.2297 10.6912 6.45116 10.1522 6.87C9.55989 7.36884 9.12315 8.02814 8.8941 8.76923C8.56409 9.79425 8.40858 10.8677 8.4341 11.9446C8.40853 13.0207 8.56404 14.0935 8.8941 15.1177C9.12335 15.8574 9.56013 16.5152 10.1522 17.0123C10.6912 17.4311 11.3566 17.6526 12.0382 17.64C12.6044 17.6493 13.162 17.4998 13.6482 17.2085C14.1403 16.8982 14.538 16.4583 14.7982 15.9369C15.1138 15.2961 15.2947 14.597 15.3295 13.8831H23C22.9709 15.9338 22.5109 17.7192 21.62 19.2392C20.7194 20.7617 19.3946 21.9865 17.8089 22.7631C16.159 23.5877 14.1956 24 11.9186 24Z" fill="white"/>
</svg>
